Coordinates
version=1
nRows=29
nColumns=22
inDegrees=yes

Units are S.I. units (second, meters, Newtons, ...)
If the header above contains a line with 'inDegrees', this indicates whether rotational values are in degrees (yes) or radians (no).

endheader
time	pelvis_tilt	pelvis_list	pelvis_rotation	pelvis_tx	pelvis_ty	pelvis_tz	hip_flexion_r	hip_adduction_r	hip_rotation_r	knee_angle_r	ankle_angle_r	subtalar_angle_r	hip_flexion_l	hip_adduction_l	hip_rotation_l	knee_angle_l	ankle_angle_l	subtalar_angle_l	lumbar_extension	lumbar_bending	lumbar_rotation
      1.04000000	      1.52546483	      0.68505698	      0.82252408	      0.47623299	      0.92824546	     -0.09145347	     33.29323578	     -4.27189583	     -7.49459858	    -54.72174870	      8.11090210	      5.01319387	      5.33486197	      4.99097829	     -7.93471585	    -25.70070708	     17.59217340	    -11.23332854	    -15.72665262	     -4.28562827	     -8.70922167
      1.05000000	      1.53812195	      0.71461560	      0.69947514	      0.47070852	      0.92947785	     -0.09161163	     32.96806069	     -4.38669121	     -7.17932060	    -56.88463871	      8.38111605	      5.07058767	      5.33314770	      5.05007811	     -8.19975924	    -25.00961760	     17.08455709	    -11.24357977	    -15.52994927	     -4.35687574	     -8.78041952
      1.06000000	      1.56493429	      0.77079347	      0.59697162	      0.46526051	      0.93054891	     -0.09175072	     32.52130310	     -4.54407681	     -6.88050206	    -58.96396431	      8.65093379	      5.09287545	      5.34463901	      5.13065609	     -8.46628958	    -24.38640157	     16.58179351	    -11.26286872	    -15.33567858	     -4.46607467	     -8.88474796
      1.07000000	      1.58161958	      0.86306751	      0.49422424	      0.45994620	      0.93144593	     -0.09185303	     31.97567215	     -4.73652194	     -6.56842156	    -60.94255257	      8.89846478	      5.10188467	      5.34723032	      5.26352724	     -8.66356324	    -23.74262948	     16.11059215	    -11.28329779	    -15.10529917	     -4.63066785	     -8.94871509
      1.08000000	      1.61187258	      0.98364188	      0.42426410	      0.45468898	      0.93217496	     -0.09196773	     31.30414780	     -4.97586985	     -6.27853403	    -62.81273522	      9.13539222	      5.09514902	      5.38328183	      5.41963238	     -8.84467731	    -23.19835083	     15.64890615	    -11.31270434	    -14.88318215	     -4.82658303	     -9.05099499
      1.09000000	      1.64582980	      1.13741826	      0.38056985	      0.44948634	      0.93273853	     -0.09206597	     30.51688026	     -5.25790090	     -6.00644408	    -64.55781850	      9.36076782	      5.05827403	      5.44629583	      5.60877858	     -8.98735676	    -22.71850063	     15.21049071	    -11.34667033	    -14.65720302	     -5.06787658	     -9.16256591
      1.10000000	      1.67665981	      1.32437521	      0.35848117	      0.44432680	      0.93312497	     -0.09218651	     29.62150623	     -5.58769498	     -5.76059246	    -66.16310337	      9.59240064	      4.98205548	      5.55472629	      5.83303776	     -9.09016884	    -22.32366540	     14.78325223	    -11.37893052	    -14.41901519	     -5.34492044	     -9.27548911
      1.11000000	      1.70094638	      1.54546070	      0.35588261	      0.43920659	      0.93334879	     -0.09232088	     28.62108844	     -5.96660523	     -5.55009223	    -67.61319532	      9.83011190	      4.84100179	      5.70010230	      6.08932409	     -9.18209415	    -21.98719681	     14.38054667	    -11.40508197	    -14.16312074	     -5.65894683	     -9.40218066
      1.12000000	      1.73022548	      1.79855265	      0.36190371	      0.43409268	      0.93343823	     -0.09245954	     27.50918318	     -6.39522704	     -5.38656902	    -68.89598156	     10.07548672	      4.56988016	      5.87902312	      6.38117302	     -9.21961354	    -21.72415443	     13.99271870	    -11.41599682	    -13.90814125	     -6.01140080	     -9.45778546
      1.13000000	      1.73182768	      2.07041832	      0.38897383	      0.42898560	      0.93336133	     -0.09261612	     26.31829621	     -6.86228356	     -5.28355318	    -69.99421713	     10.30831174	      4.27495782	      6.13353419	      6.68233714	     -9.26929769	    -21.54454151	     13.62088135	    -11.39784951	    -13.61255063	     -6.38029267	     -9.52393331
      1.14000000	      1.72325126	      2.36241187	      0.41897269	      0.42388668	      0.93316287	     -0.09275502	     25.03757321	     -7.36154396	     -5.23519516	    -70.89839485	     10.49774387	      3.89825563	      6.43313438	      6.99925743	     -9.30752642	    -21.42738496	     13.26413608	    -11.34197898	    -13.29454037	     -6.77191494	     -9.54840873
      1.15000000	      1.68222454	      2.65653795	      0.46497818	      0.41878182	      0.93282398	     -0.09286735	     23.69233777	     -7.87741041	     -5.26406556	    -71.59581007	     10.60461012	      3.57527968	      6.81283116	      7.30505576	     -9.35857824	    -21.39049410	     12.92360799	    -11.26715560	    -12.93119452	     -7.17206710	     -9.52687228
      1.16000000	      1.62201067	      2.95532745	      0.51216637	      0.41366197	      0.93236906	     -0.09294954	     22.28143509	     -8.40334679	     -5.35571665	    -72.08531717	     10.61319756	      3.30258004	      7.25635561	      7.60700400	     -9.41752185	    -21.42842907	     12.59568099	    -11.17597276	    -12.53377035	     -7.57753661	     -9.45186828
      1.17000000	      1.55321170	      3.25087179	      0.55682203	      0.40848916	      0.93181347	     -0.09296354	     20.80457591	     -8.91632505	     -5.49995500	    -72.36446808	     10.53105943	      3.07957287	      7.75891609	      7.89457487	     -9.46994962	    -21.55095630	     12.29506599	    -11.05267120	    -12.12351484	     -7.98833808	     -9.29768112
      1.18000000	      1.43927509	      3.52638288	      0.61008619	      0.40330458	      0.93111538	     -0.09293737	     19.30428584	     -9.40622953	     -5.72161126	    -72.43153858	     10.32982096	      3.02680842	      8.35442085	      8.14345884	     -9.58117003	    -21.74912523	     12.01127380	    -10.96731992	    -11.64425217	     -8.37794949	     -9.09636127
      1.19000000	      1.32266815	      3.80566772	      0.65864593	      0.39803338	      0.93032908	     -0.09284799	     17.75710840	     -9.87588572	     -5.97840873	    -72.29953631	     10.04852592	      3.07193675	      8.99674752	      8.39106616	     -9.67267389	    -22.01390246	     11.73007505	    -10.84857911	    -11.16270530	     -8.77919578	     -8.80977613
      1.20000000	      1.18067739	      4.05831795	      0.69538316	      0.39262938	      0.92940055	     -0.09261972	     16.20472414	    -10.27210048	     -6.26074289	    -71.97696647	      9.70792807	      3.18220878	      9.73874320	      8.58550391	     -9.80896367	    -22.39521771	     11.51529028	    -10.77414105	    -10.65467987	     -9.16922066	     -8.44408254
      1.21000000	      1.04127163	      4.29788062	      0.73850064	      0.38715014	      0.92843526	     -0.09238850	     14.60790940	    -10.62100073	     -6.56731451	    -71.44501721	      9.19910051	      3.80526210	     10.48142928	      8.77130939	     -9.90514593	    -22.76536901	     11.24265144	    -10.49648563	    -10.15040005	     -9.53641979	     -8.01657261
      1.22000000	      0.84360770	      4.48800991	      0.76577620	      0.38144065	      0.92728448	     -0.09201530	     13.07792338	    -10.84583911	     -6.85989220	    -70.73886809	      8.60840634	      4.34087915	     11.37072660	      8.88175732	    -10.03918949	    -23.25972647	     10.99914459	    -10.38914846	     -9.59416325	     -9.86179665	     -7.50225814
      1.23000000	      0.62389242	      4.65414714	      0.77700466	      0.37553465	      0.92600695	     -0.09153617	     11.57588635	    -10.98095366	     -7.12311831	    -69.85969165	      7.97250190	      5.08074597	     12.33323783	      8.94787423	    -10.21532086	    -23.81708496	     10.79170414	    -10.28115968	     -9.02642296	    -10.16729789	     -6.93210499
      1.24000000	      0.37458698	      4.79795611	      0.77721472	      0.36941769	      0.92460509	     -0.09097400	     10.11886211	    -11.02446925	     -7.34435237	    -68.81099718	      7.30153163	      5.97519539	     13.36663592	      8.97708662	    -10.41860064	    -24.41660000	     10.59677417	    -10.18915196	     -8.44515632	    -10.44909988	     -6.31222426
      1.25000000	      0.11141172	      4.87228765	      0.75022750	      0.36303955	      0.92313369	     -0.09026277	      8.70431085	    -10.90290914	     -7.48544902	    -67.58578513	      6.54763876	      6.93061277	     14.45598721	      8.92031330	    -10.59541392	    -25.05704990	     10.39779984	    -10.12550125	     -7.87332000	    -10.66000452	     -5.59813408
      1.26000000	     -0.16856374	      4.92769803	      0.70741925	      0.35645595	      0.92156885	     -0.08945532	      7.33395249	    -10.70338777	     -7.56850716	    -66.20137790	      5.79719227	      8.10193846	     15.59309252	      8.82093185	    -10.83176184	    -25.72470261	     10.17202705	    -10.06673598	     -7.30164449	    -10.84953848	     -4.88143021
      1.27000000	     -0.45203793	      4.92591970	      0.63414093	      0.34961309	      0.91997194	     -0.08850465	      6.00793198	    -10.36038705	     -7.54231226	    -64.65321097	      5.03802963	      9.34889172	     16.74937839	      8.64995594	    -11.04595723	    -26.38617183	      9.93352266	    -10.02072840	     -6.75289721	    -10.97798829	     -4.09094387
      1.28000000	     -0.72788044	      4.86984563	      0.52312010	      0.34252206	      0.91834546	     -0.08741416	      4.71943869	     -9.89903313	     -7.41353174	    -62.95363725	      4.29615999	     10.63111486	     17.91644136	      8.40033038	    -11.27337144	    -27.05521110	      9.71211588	     -9.97965128	     -6.23776824	    -11.04286177	     -3.25804552
      1.29000000	     -0.98987883	      4.77885919	      0.37819616	      0.33517855	      0.91671474	     -0.08619936	      3.46541423	     -9.35623623	     -7.18241791	    -61.11337464	      3.59667683	     11.90658582	     19.07622986	      8.09343580	    -11.52160083	    -27.70871969	      9.48249451	     -9.94024858	     -5.76513082	    -11.06763973	     -2.39754779
      1.30000000	     -1.23416284	      4.65314245	      0.19754326	      0.32756902	      0.91509547	     -0.08487766	      2.24793127	     -8.74743467	     -6.85010209	    -59.14661684	      2.97931507	     13.09736052	     20.21594539	      7.73452622	    -11.77001985	    -28.32932697	      9.24411005	     -9.90359830	     -5.34111034	    -11.04641113	     -1.51374040
      1.31000000	     -1.44789203	      4.50605981	     -0.02488503	      0.31969423	      0.91351178	     -0.08345946	      1.06053791	     -8.11290392	     -6.43118035	    -57.07047992	      2.44091820	     14.16341038	     21.32072734	      7.33280381	    -12.03949675	    -28.91725947	      8.98006092	     -9.86908912	     -4.97831997	    -10.99132507	     -0.62349010
      1.32000000	     -1.62648901	      4.34809724	     -0.28435405	      0.31154606	      0.91198008	     -0.08196970	     -0.09760361	     -7.48164863	     -5.94009624	    -54.89991266	      1.99551567	     15.04795182	     22.37808005	      6.90475547	    -12.31751324	    -29.45828175	      8.67993864	     -9.83900949	     -4.68535417	    -10.91334210	      0.26633291
